<svg
     width="18"
     height="24"
     viewBox="0 0 18 24"
     fill="none"
     xmlns="http://www.w3.org/2000/svg"
>
    <path
            fill-rule="evenodd"
            clip-rule="evenodd"
            d="M3.75 5.8125C3.50136 5.8125 3.2629 5.91127 3.08709 6.08709C2.91127 6.2629 2.8125 6.50136 2.8125 6.75V17.392L4.85225 15.3523C4.95774 15.2468 5.10082 15.1875 5.25 15.1875H14.25C14.4986 15.1875 14.7371 15.0887 14.9129 14.9129C15.0887 14.7371 15.1875 14.4986 15.1875 14.25V6.75C15.1875 6.50136 15.0887 6.2629 14.9129 6.08709C14.7371 5.91127 14.4986 5.8125 14.25 5.8125H3.75ZM2.29159 5.29159C2.67839 4.9048 3.20299 4.6875 3.75 4.6875H14.25C14.797 4.6875 15.3216 4.9048 15.7084 5.29159C16.0952 5.67839 16.3125 6.20299 16.3125 6.75V14.25C16.3125 14.797 16.0952 15.3216 15.7084 15.7084C15.3216 16.0952 14.797 16.3125 14.25 16.3125H5.48299L2.64775 19.1477C2.48687 19.3086 2.24493 19.3567 2.03474 19.2697C1.82455 19.1826 1.6875 18.9775 1.6875 18.75V6.75C1.6875 6.20299 1.9048 5.67839 2.29159 5.29159Z"
            fill="currentColor"
    />
</svg>