<svg className="mr-3" width="16" height="18" viewBox="0 0 16 18" fill="none" xmlns="http://www.w3.org/2000/svg">
            <path
                d="M12.5 6C12.5 4.80653 12.0259 3.66193 11.182 2.81802C10.3381 1.97411 9.19347 1.5 8 1.5C6.80653 1.5 5.66193 1.97411 4.81802 2.81802C3.97411 3.66193 3.5 4.80653 3.5 6C3.5 11.25 1.25 12.75 1.25 12.75H14.75C14.75 12.75 12.5 11.25 12.5 6Z"
                stroke="#949796" stroke-width="1.5" stroke-linecap="round" stroke-linejoin="round"/>
            <path
                d="M9.29739 15.75C9.16553 15.9773 8.97627 16.166 8.74856 16.2971C8.52085 16.4283 8.26268 16.4973 7.99989 16.4973C7.73711 16.4973 7.47893 16.4283 7.25122 16.2971C7.02351 16.166 6.83425 15.9773 6.70239 15.75"
                stroke="#949796" stroke-width="1.5" stroke-linecap="round" stroke-linejoin="round"/>
        </svg>